<svg xmlns="http://www.w3.org/2000/svg" width="32" height="32" id="location"><g transform="translate(0 -1020.362)"><circle cx="16" cy="1036.362" r="16" fill="#ffa40b" fill-rule="evenodd"></circle><path style="line-height:normal;text-indent:0;text-align:start;text-decoration-line:none;text-decoration-style:solid;text-decoration-color:#000;text-transform:none;block-progression:tb;isolation:auto;mix-blend-mode:normal" fill="#ff7712" d="M19.387 31.617a16 16 0 0 0 .892-.201 16 16 0 0 0 1.518-.504 16 16 0 0 0 1.46-.652 16 16 0 0 0 1.388-.797 16 16 0 0 0 1.3-.93 16 16 0 0 0 1.201-1.054 16 16 0 0 0 1.092-1.172 16 16 0 0 0 .967-1.272 16 16 0 0 0 .836-1.365 16 16 0 0 0 .695-1.44 16 16 0 0 0 .36-.982L19.158 9.311c-.011-.012-.025-.02-.037-.032-.088-.086-.192-.155-.287-.234-.12-.1-.235-.208-.365-.295-.165-.11-.345-.196-.524-.283-.075-.037-.143-.085-.22-.117a4.454 4.454 0 0 0-.606-.19c-.079-.02-.152-.056-.232-.072a4.49 4.49 0 0 0-.809-.082c-.028 0-.054-.008-.082-.008h-.002v-.002c-2.48 0-4.5 2.02-4.5 4.5a.5.5 0 0 0 .024.158c.042 1.579.726 2.96 1.53 4.24.832 1.323 1.795 2.563 2.413 3.829a.5.5 0 0 0 .23.23l1.926 1.926c-.12.017-.24.035-.361.049l-4.967-4.967a.5.5 0 0 0-.66-.66c-1.12.47-1.937 1.102-2.352 1.883-.415.78-.343 1.723.223 2.49.107.145.227.283.36.416l9.527 9.527z" color="#000" font-family="sans-serif" font-weight="400" transform="translate(0 1020.362)"></path><path style="line-height:normal;text-indent:0;text-align:start;text-decoration-line:none;text-decoration-style:solid;text-decoration-color:#000;text-transform:none;block-progression:tb;isolation:auto;mix-blend-mode:normal" fill="#fff" d="M7.994-.002c-2.48 0-4.5 2.02-4.5 4.5a.5.5 0 0 0 .024.158c.042 1.579.726 2.96 1.53 4.24.832 1.323 1.795 2.563 2.413 3.829a.5.5 0 0 0 .894.01c.65-1.265 1.662-2.507 2.536-3.829.873-1.322 1.619-2.75 1.619-4.4a.5.5 0 0 0-.033-.186C12.38 1.925 10.413-.002 7.994-.002zm0 1c1.94 0 3.5 1.561 3.5 3.5a.5.5 0 0 0 .01.107c-.03 1.308-.634 2.52-1.447 3.75-.688 1.041-1.466 2.116-2.137 3.233-.637-1.112-1.371-2.185-2.024-3.223C5.103 7.102 4.51 5.86 4.51 4.505a.5.5 0 0 0-.008-.087A3.488 3.488 0 0 1 7.994.998zm0 2.002c-.822 0-1.5.677-1.5 1.5S7.172 6 7.994 6c.823 0 1.5-.677 1.5-1.5S8.817 3 7.994 3zm0 1c.282 0 .5.218.5.5 0 .282-.218.5-.5.5a.493.493 0 0 1-.5-.5c0-.282.218-.5.5-.5zm4.09 5.227a.5.5 0 0 0-.18.966c.997.404 1.638.933 1.914 1.42.277.487.27.908-.091 1.426-.725 1.036-3.036 1.954-5.674 1.965-2.639.01-4.982-.883-5.748-1.922-.383-.52-.402-.943-.145-1.428.258-.484.875-1.018 1.856-1.43a.5.5 0 1 0-.387-.921c-1.12.47-1.937 1.102-2.352 1.883-.415.78-.343 1.722.223 2.49 1.132 1.534 3.711 2.34 6.559 2.328 2.847-.012 5.402-.837 6.488-2.39.543-.777.58-1.723.14-2.495-.438-.772-1.273-1.394-2.408-1.853a.5.5 0 0 0-.195-.04Z" color="#000" font-family="sans-serif" font-weight="400" overflow="visible" transform="translate(8 1028.361)"></path></g></svg>